<svg height="512" viewBox="0 0 64 64" width="512" xmlns="http://www.w3.org/2000/svg"><path d="m55 11v32h-46v-32a2.006 2.006 0 0 1 2-2h42a2.006 2.006 0 0 1 2 2z" fill="#acabb1"/><path d="m13 13h38v26h-38z" fill="#5aaae7"/><path d="m13 13h38v26h-38z" fill="#5aaae7"/><path d="m51 13v26h-38c20.507-2.341 32.71-11.381 38-26z" fill="#3d9ae2"/><path d="m36 55h-33v5a1 1 0 0 0 1 1h56a1 1 0 0 0 1-1v-5z" fill="#d8d7da"/><path d="m11 55h50a0 0 0 0 1 0 0v4a0 0 0 0 1 0 0h-48a2 2 0 0 1 -2-2v-2a0 0 0 0 1 0 0z" fill="#c6c5ca"/><path d="m55 43 6 12h-25-8-25l6-12z" fill="#bbbabf"/><path d="m36 55v2a1 1 0 0 1 -1 1h-6a1 1 0 0 1 -1-1v-2z" fill="#898890"/><path d="m44.65 13a12.864 12.864 0 0 0 -1.39-3.5h-.01a5.088 5.088 0 0 0 -.3-.5 12.93 12.93 0 0 0 -4.45-4.25v-.01a13.011 13.011 0 0 0 -13 0v.01a12.93 12.93 0 0 0 -4.45 4.25 5.088 5.088 0 0 0 -.3.5h-.01a12.994 12.994 0 0 0 -1.74 6.5h26a12.9 12.9 0 0 0 -.35-3z" fill="#00ccb3"/><path d="m27 23h10v10h-10z" fill="#ffd422"/><path d="m30 26h4v4h-4z" fill="#ff9811"/><path d="m35 16h-6a3 3 0 0 1 6 0z" fill="#ff5023"/><path d="m61.9 54.553-5.9-11.789v-31.764a3 3 0 0 0 -3-3h-9.527a13.969 13.969 0 0 0 -22.946 0h-9.527a3 3 0 0 0 -3 3v31.764l-5.895 11.789a1 1 0 0 0 -.105.447v5a2 2 0 0 0 2 2h56a2 2 0 0 0 2-2v-5a1 1 0 0 0 -.1-.447zm-32.9 1.447h6v1h-6zm-24.382-2 5-10h44.764l5 10zm20.545-47.842.971 1.682 1.732-1-.973-1.686a11.9 11.9 0 0 1 4.107-1.106v1.952h2v-1.952a11.9 11.9 0 0 1 4.107 1.106l-.973 1.686 1.732 1 .971-1.682a12.089 12.089 0 0 1 3.006 3.005l-1.683.971 1 1.732 1.689-.974a11.9 11.9 0 0 1 1.11 4.108h-8.1a3.915 3.915 0 0 0 -.425-1.019l3.274-3.274-1.415-1.414-3.274 3.274a3.947 3.947 0 0 0 -2.019-.567 4 4 0 0 0 -3.858 3h-8.1a11.9 11.9 0 0 1 1.11-4.108l1.689.974 1-1.732-1.683-.971a12.089 12.089 0 0 1 3.005-3.005zm19.837 10.842a1 1 0 0 0 1-1 13.884 13.884 0 0 0 -.16-2h4.16v24h-36v-24h4.16a13.884 13.884 0 0 0 -.16 2 1 1 0 0 0 1 1zm-11.278-2h-3.444a1.983 1.983 0 0 1 3.444 0zm-23.722-4a1 1 0 0 1 1-1h8.37a13.864 13.864 0 0 0 -.78 2h-5.59a1 1 0 0 0 -1 1v26a1 1 0 0 0 1 1h38a1 1 0 0 0 1-1v-26a1 1 0 0 0 -1-1h-5.59a13.864 13.864 0 0 0 -.78-2h8.37a1 1 0 0 1 1 1v31h-44zm-6 49v-4h23v1a2 2 0 0 0 2 2h6a2 2 0 0 0 2-2v-1h23v4z"/><path d="m10 50h2v2h-2z"/><path d="m14 50h2v2h-2z"/><path d="m18 50h28v2h-28z"/><path d="m48 50h2v2h-2z"/><path d="m52 50h2v2h-2z"/><path d="m15 46h2v2h-2z"/><path d="m11 46h2v2h-2z"/><path d="m19 46h2v2h-2z"/><path d="m23 46h2v2h-2z"/><path d="m27 46h2v2h-2z"/><path d="m31 46h2v2h-2z"/><path d="m35 46h2v2h-2z"/><path d="m39 46h2v2h-2z"/><path d="m43 46h2v2h-2z"/><path d="m47 46h2v2h-2z"/><path d="m51 46h2v2h-2z"/><path d="m26 33a1 1 0 0 0 1 1h2v2h2v-2h2v2h2v-2h2a1 1 0 0 0 1-1v-2h2v-2h-2v-2h2v-2h-2v-2a1 1 0 0 0 -1-1h-2v-2h-2v2h-2v-2h-2v2h-2a1 1 0 0 0 -1 1v2h-2v2h2v2h-2v2h2zm2-9h8v8h-8z"/><path d="m34 25h-4a1 1 0 0 0 -1 1v4a1 1 0 0 0 1 1h4a1 1 0 0 0 1-1v-4a1 1 0 0 0 -1-1zm-1 4h-2v-2h2z"/><path d="m42 25h2v2h-2z"/><path d="m42 21h2v2h-2z"/><path d="m20 25h2v2h-2z"/><path d="m20 21h2v2h-2z"/><path d="m16 23h2v2h-2z"/><path d="m16 19h2v2h-2z"/><path d="m46 23h2v2h-2z"/><path d="m46 19h2v2h-2z"/><path d="m58 30h2v2h-2z"/><path d="m4 30h2v2h-2z"/><path d="m4 24h2v2h-2z"/><path d="m4 18h2v2h-2z"/><path d="m58 24h2v2h-2z"/><path d="m58 18h2v2h-2z"/><path d="m57 5h2v2h-2z"/><path d="m5 5h2v2h-2z"/></svg>