<?xml version="1.0" encoding="iso-8859-1"?>
<!-- Generator: Adobe Illustrator 19.0.0, SVG Export Plug-In . SVG Version: 6.00 Build 0)  -->
<svg version="1.1" id="Capa_1" xmlns="http://www.w3.org/2000/svg" xmlns:xlink="http://www.w3.org/1999/xlink" x="0px" y="0px"
	 viewBox="0 0 512 512" style="enable-background:new 0 0 512 512;" xml:space="preserve">
<rect x="116" y="7.5" style="fill:#6E6B87;" width="280" height="497"/>
<rect x="366" y="7.5" style="fill:#625F78;" width="30" height="497"/>
<rect x="146" y="37.5" style="fill:#CAEEFC;" width="220" height="437"/>
<rect x="336" y="37.5" style="fill:#89CEEA;" width="30" height="437"/>
<g>
	<rect x="146" y="76" style="fill:#00B7A0;" width="220" height="40"/>
	<rect x="146" y="156" style="fill:#00B7A0;" width="220" height="40"/>
	<rect x="146" y="236" style="fill:#00B7A0;" width="220" height="40"/>
	<rect x="146" y="316" style="fill:#00B7A0;" width="220" height="40"/>
</g>
<g>
	<rect x="336" y="76" style="fill:#049681;" width="30" height="40"/>
	<rect x="336" y="156" style="fill:#049681;" width="30" height="40"/>
	<rect x="336" y="236" style="fill:#049681;" width="30" height="40"/>
	<rect x="336" y="316" style="fill:#049681;" width="30" height="40"/>
</g>
<rect x="146" y="396" style="fill:#00B7A0;" width="220" height="40"/>
<rect x="336" y="396" style="fill:#049681;" width="30" height="40"/>
<path d="M396,0H116c-4.142,0-7.5,3.357-7.5,7.5V31c0,4.143,3.358,7.5,7.5,7.5s7.5-3.357,7.5-7.5V15h265v432.667
	c0,4.143,3.357,7.5,7.5,7.5s7.5-3.357,7.5-7.5V7.5C403.5,3.357,400.143,0,396,0z"/>
<path d="M396,472.667c-4.143,0-7.5,3.357-7.5,7.5V497h-265V64c0-4.143-3.358-7.5-7.5-7.5s-7.5,3.357-7.5,7.5v440.5
	c0,4.143,3.358,7.5,7.5,7.5h280c4.143,0,7.5-3.357,7.5-7.5v-24.333C403.5,476.024,400.143,472.667,396,472.667z"/>
<path d="M138.5,474.5c0,4.143,3.358,7.5,7.5,7.5h220c4.143,0,7.5-3.357,7.5-7.5 M373.5,474.5v-437c0-4.143-3.357-7.5-7.5-7.5H146
	c-4.142,0-7.5,3.357-7.5,7.5v437 M186.5,123.5v25h-5v-25H186.5z M206.5,123.5v25h-5v-25H206.5z M358.5,123.5v25h-137v-25H358.5z
	 M358.5,428.5h-205v-25h205V428.5z M315.84,443.5V467h-5v-23.5H315.84z M330.84,443.5h5V467h-5V443.5z M153.5,243.5L153.5,243.5h205
	l0,0v25h-205V243.5z M153.5,203.5h13v25h-13V203.5z M153.5,163.5h205v25l0,0h-205l0,0V163.5z M358.5,228.5h-7.66v-25h7.66V228.5z
	 M330.84,228.5v-25h5v25H330.84z M310.84,228.5v-25h5v25H310.84z M221.5,228.5v-25h74.34v25H221.5z M201.5,228.5v-25h5v25H201.5z
	 M181.5,228.5v-25h5v25H181.5z M358.5,308.5h-75v-25h75V308.5z M263.5,308.5v-25h5v25H263.5z M243.5,308.5v-25h5v25H243.5z
	 M228.5,283.5v25h-75v-25H228.5z M153.5,323.5h205v25h-205V323.5z M201.5,388.5v-25h5v25H201.5z M181.5,388.5v-25h5v25H181.5z
	 M166.5,363.5v25h-13v-25H166.5z M221.5,388.5v-25h137v25H221.5z M166.5,148.5h-13v-25h13V148.5z M153.5,443.5h142.34V467H153.5
	V443.5z M350.84,467v-23.5h7.66V467H350.84z M358.5,45v23.5h-6.667c-4.143,0-7.5,3.357-7.5,7.5s3.357,7.5,7.5,7.5h6.667v25h-205v-25
	h166.333c4.143,0,7.5-3.357,7.5-7.5s-3.357-7.5-7.5-7.5H153.5V45H358.5z"/>
<path d="M201.333,88.5H185.19c-4.142,0-7.5,3.357-7.5,7.5s3.358,7.5,7.5,7.5h16.143c4.142,0,7.5-3.357,7.5-7.5
	S205.476,88.5,201.333,88.5z"/>
<path d="M185.191,183.5h16.143c4.142,0,7.5-3.357,7.5-7.5s-3.358-7.5-7.5-7.5h-16.143c-4.142,0-7.5,3.357-7.5,7.5
	S181.049,183.5,185.191,183.5z"/>
<path d="M247.929,263.5h16.143c4.143,0,7.5-3.357,7.5-7.5s-3.357-7.5-7.5-7.5h-16.143c-4.142,0-7.5,3.357-7.5,7.5
	S243.787,263.5,247.929,263.5z"/>
<path d="M185.929,343.5h16.143c4.142,0,7.5-3.357,7.5-7.5s-3.358-7.5-7.5-7.5h-16.143c-4.142,0-7.5,3.357-7.5,7.5
	S181.787,343.5,185.929,343.5z"/>
<path d="M315.272,423.937h16.143c4.143,0,7.5-3.357,7.5-7.5s-3.357-7.5-7.5-7.5h-16.143c-4.143,0-7.5,3.357-7.5,7.5
	S311.13,423.937,315.272,423.937z"/>
<path d="M315.272,183.5h16.143c4.143,0,7.5-3.357,7.5-7.5s-3.357-7.5-7.5-7.5h-16.143c-4.143,0-7.5,3.357-7.5,7.5
	S311.13,183.5,315.272,183.5z"/>
<g>
</g>
<g>
</g>
<g>
</g>
<g>
</g>
<g>
</g>
<g>
</g>
<g>
</g>
<g>
</g>
<g>
</g>
<g>
</g>
<g>
</g>
<g>
</g>
<g>
</g>
<g>
</g>
<g>
</g>
</svg>
