<?xml version="1.0"?>
<svg xmlns="http://www.w3.org/2000/svg" id="Line" width="512" height="512" viewBox="0 0 64 64"><path d="M60,30.5H51v-3a3,3,0,0,0-3-3H36a3,3,0,0,0-3,3v3H21a3,3,0,0,0-3,3v13h9v-5a1,1,0,0,1,2,0v5H52v-5a1,1,0,0,1,2,0v5h9v-13A3,3,0,0,0,60,30.5Zm-25-2H49v2H35Z" style="fill:#c4a2fc"/><path d="M54,48.5v3h1a1,1,0,0,1,0,2H54v1a1,1,0,1,1-2,0v-1H51a1,1,0,0,1,0-2h1v-3H29v3h1a1,1,0,1,1,0,2H29v1a1,1,0,1,1-2,0v-1H26a1,1,0,0,1,0-2h1v-3H18V60a3,3,0,0,0,3,3H60a3,3,0,0,0,3-3V48.5Z" style="fill:#c4a2fc"/><path d="M26,12.5a7,7,0,1,0,7,7A7.008,7.008,0,0,0,26,12.5Zm0,12a5,5,0,1,1,5-5A5.006,5.006,0,0,1,26,24.5Z" style="fill:#151a6a"/><path d="M44,36.5a7.016,7.016,0,0,0-5.9,3.249,5.255,5.255,0,0,0-1.6-.249,5.5,5.5,0,0,0-4.69,2.643L30.443,38.5h.321a2.982,2.982,0,0,0,2.683-1.658L35.618,32.5H36a3,3,0,0,0,3-3h6a3,3,0,0,0,3-3,8.457,8.457,0,0,0-3.773-7.05l-6.756-4.5A28.094,28.094,0,0,0,27.8,1.6a3.014,3.014,0,0,0-3.6,0,28.09,28.09,0,0,0-9.671,13.345l-6.756,4.5A8.457,8.457,0,0,0,4,26.5a3,3,0,0,0,3,3h6a3,3,0,0,0,3,3h.382l2.171,4.342A2.982,2.982,0,0,0,21.236,38.5h.321l-1.366,3.643A5.5,5.5,0,0,0,15.5,39.5a5.255,5.255,0,0,0-1.6.249A7,7,0,1,0,8,50.5H44a7,7,0,0,0,0-14ZM43.117,21.11A6.459,6.459,0,0,1,46,26.5a1,1,0,0,1-1,1H39V24a27.711,27.711,0,0,0-.687-6.089ZM7,27.5a1,1,0,0,1-1-1A6.459,6.459,0,0,1,8.883,21.11l4.8-3.2A27.711,27.711,0,0,0,13,24v3.5Zm8,2V24A26.122,26.122,0,0,1,25.4,3.2h0a1,1,0,0,1,1.2,0A26.122,26.122,0,0,1,37,24v5.5a1,1,0,0,1-1,1H16A1,1,0,0,1,15,29.5Zm5.342,6.448L18.618,32.5H33.382l-1.724,3.448a1,1,0,0,1-.894.552H21.236A1,1,0,0,1,20.342,35.944ZM44,48.5H8a5,5,0,1,1,4.546-7.072,1,1,0,0,0,1.367.475,3.452,3.452,0,0,1,1.587-.4A3.5,3.5,0,0,1,19,45a.964.964,0,0,0,.049.241.993.993,0,0,0,1.888.611L23.693,38.5h4.614l2.756,7.352a.993.993,0,0,0,1.888-.611A.964.964,0,0,0,33,45a3.5,3.5,0,0,1,3.5-3.5,3.459,3.459,0,0,1,1.588.4,1,1,0,0,0,1.367-.475A5,5,0,1,1,44,48.5Z" style="fill:#151a6a"/></svg>
