<?xml version="1.0" encoding="iso-8859-1"?>
<!-- Generator: Adobe Illustrator 19.0.0, SVG Export Plug-In . SVG Version: 6.00 Build 0)  -->
<svg version="1.1" id="Capa_1" xmlns="http://www.w3.org/2000/svg" xmlns:xlink="http://www.w3.org/1999/xlink" x="0px" y="0px"
	 viewBox="0 0 512 512" style="enable-background:new 0 0 512 512;" xml:space="preserve">
<g>
	<g>
		<path d="M77.433,395.941c-10.124,23.899-15.258,49.291-15.258,75.472V512h15.103v-40.587c0-24.146,4.731-47.555,14.062-69.58
			L77.433,395.941z"/>
	</g>
</g>
<g>
	<g>
		<path d="M434.515,395.806l-13.903,5.9c9.363,22.06,14.11,45.513,14.11,69.706V512h15.103v-40.587
			C449.825,445.18,444.674,419.742,434.515,395.806z"/>
	</g>
</g>
<g>
	<g>
		<path d="M329.812,292.154c12.345-12.53,21.622-28.01,26.649-44.812l-14.469-4.331c-11.647,38.92-48.188,66.102-88.862,66.102
			c-40.669,0-77.206-27.182-88.852-66.102l-14.469,4.33c5.258,17.572,15.152,33.708,28.352,46.523
			c-27.203,11.941-51.457,30.099-70.692,53.028l11.57,9.707c19.403-23.127,44.332-40.99,72.298-51.842
			c0.959,0.673,1.929,1.318,2.905,1.956c0.096,0.062,0.19,0.129,0.287,0.19c1.011,0.658,2.032,1.291,3.06,1.912
			c0.047,0.028,0.094,0.057,0.14,0.086c15.415,9.276,32.75,14.487,50.902,15.224c0.005,0,0.01,0.001,0.016,0.001
			c1.489,0.06,2.984,0.092,4.484,0.092c1.468,0,2.932-0.03,4.39-0.088c0.335-0.013,0.667-0.042,1.002-0.058
			c1.126-0.054,2.251-0.113,3.37-0.202c0.334-0.026,0.666-0.068,1-0.098c1.116-0.099,2.23-0.202,3.338-0.335
			c0.328-0.039,0.653-0.094,0.982-0.136c1.109-0.143,2.216-0.291,3.316-0.468c0.334-0.053,0.665-0.122,0.998-0.178
			c1.086-0.185,2.172-0.376,3.249-0.594c0.364-0.073,0.722-0.162,1.084-0.239c1.038-0.221,2.074-0.446,3.103-0.699
			c0.417-0.102,0.828-0.219,1.243-0.326c0.963-0.249,1.926-0.497,2.881-0.772c0.492-0.142,0.979-0.3,1.468-0.449
			c0.863-0.263,1.727-0.523,2.584-0.808c0.588-0.195,1.169-0.409,1.753-0.614c0.742-0.261,1.486-0.518,2.222-0.795
			c0.699-0.263,1.391-0.547,2.084-0.825c0.604-0.243,1.211-0.478,1.811-0.733c0.822-0.346,1.633-0.716,2.447-1.083
			c0.456-0.206,0.915-0.406,1.368-0.619c0.944-0.443,1.88-0.91,2.812-1.381c0.307-0.156,0.616-0.305,0.922-0.463
			c1.065-0.552,2.118-1.128,3.168-1.716c0.162-0.091,0.325-0.178,0.486-0.27c1.177-0.669,2.341-1.362,3.496-2.077
			c0.026-0.016,0.052-0.031,0.079-0.047c2.421-1.501,4.791-3.105,7.109-4.809c29.477,10.686,55.667,28.998,75.946,53.139
			l11.564-9.714C384.215,322.725,358.612,304.026,329.812,292.154z"/>
	</g>
</g>
<g>
	<g>
		<rect x="132.656" y="460.649" width="15.103" height="51.351"/>
	</g>
</g>
<g>
	<g>
		<rect x="364.239" y="460.649" width="15.103" height="51.351"/>
	</g>
</g>
<g>
	<g>
		<path d="M323.229,48.33h-210.7v57.896c0,4.461,0.937,8.759,2.787,12.774l13.719-6.317c-0.93-2.02-1.403-4.193-1.403-6.457V63.434
			h195.597c12.492,0,22.655,10.162,22.655,22.655v18.124h15.103V86.089C360.987,65.268,344.049,48.33,323.229,48.33z"/>
	</g>
</g>
<g>
	<g>
		<path d="M504.127,24.304C421.147,8.176,337.327-0.001,254.994,0C172.666,0.001,89.514,8.18,7.85,24.309l-6.089,1.202v341.663
			l6.089,1.202c81.664,16.128,164.816,24.307,247.143,24.308c0.01,0,0.01,0,0.02,0c82.325,0,166.145-8.178,249.114-24.304
			l6.111-1.188v-341.7L504.127,24.304z M16.865,73.538c25.584,3.675,45.31,25.739,45.31,52.323v140.964
			c0,26.584-19.726,48.648-45.31,52.324V73.538z M495.134,319.148c-25.584-3.675-45.31-25.739-45.31-52.324V125.86
			c0-26.584,19.726-48.648,45.31-52.323V319.148z M495.134,58.326c-33.934,3.77-60.413,32.613-60.413,67.535v140.964
			c0,34.923,26.479,63.765,60.413,67.535v20.368c-159.961,30.317-320.794,30.321-478.269,0.019V334.36
			c33.934-3.77,60.413-32.613,60.413-67.535V125.86c0-34.922-26.479-63.765-60.413-67.535V37.938
			C174.341,7.636,335.173,7.64,495.134,37.957V58.326z"/>
	</g>
</g>
<g>
	<g>
		<path d="M399.684,38.654l-1.741,15.003c11.684,1.355,23.526,2.895,35.198,4.577l2.155-14.948
			C423.486,41.584,411.505,40.026,399.684,38.654z"/>
	</g>
</g>
<g>
	<g>
		<path d="M369.463,35.511l-1.384,15.04c4.969,0.458,9.996,0.951,14.941,1.465l1.564-15.022
			C379.579,36.472,374.492,35.974,369.463,35.511z"/>
	</g>
</g>
<g>
	<g>
		<path d="M353.82,121.833H152.444c-15.268,0-27.689,12.422-27.689,27.689v50.344c0,15.268,12.421,27.689,27.689,27.689H353.82
			c15.268,0,27.689-12.421,27.689-27.689v-50.344C381.509,134.254,369.089,121.833,353.82,121.833z M366.406,199.866
			c0,6.94-5.646,12.586-12.586,12.586H152.444c-6.94,0-12.586-5.646-12.586-12.586v-50.344c0-6.94,5.646-12.586,12.586-12.586
			H353.82c6.939,0,12.586,5.647,12.586,12.586V199.866z"/>
	</g>
</g>
<g>
	<g>
		<rect x="264.055" y="152.039" width="15.103" height="15.103"/>
	</g>
</g>
<g>
	<g>
		<rect x="294.261" y="152.039" width="59.557" height="15.103"/>
	</g>
</g>
<g>
	<g>
		<rect x="31.968" y="115.792" width="15.103" height="60.413"/>
	</g>
</g>
<g>
	<g>
		<rect x="31.968" y="221.514" width="15.103" height="55.379"/>
	</g>
</g>
<g>
	<g>
		<rect x="31.968" y="191.308" width="15.103" height="15.103"/>
	</g>
</g>
<g>
	<g>
		<rect x="464.928" y="115.792" width="15.103" height="60.413"/>
	</g>
</g>
<g>
	<g>
		<rect x="464.928" y="221.514" width="15.103" height="55.379"/>
	</g>
</g>
<g>
	<g>
		<rect x="464.928" y="191.308" width="15.103" height="15.103"/>
	</g>
</g>
<g>
	<g>
		<rect x="203.138" y="413.829" width="15.103" height="15.103"/>
	</g>
</g>
<g>
	<g>
		<rect x="263.551" y="413.829" width="15.103" height="15.103"/>
	</g>
</g>
<g>
	<g>
		<rect x="293.758" y="413.829" width="15.103" height="15.103"/>
	</g>
</g>
<g>
	<g>
		<rect x="233.345" y="413.829" width="15.103" height="15.103"/>
	</g>
</g>
<g>
	<g>
		<path d="M186.144,323.416c-13.244,6.264-25.613,14.301-36.763,23.889l9.847,11.451c10.123-8.706,21.352-16.002,33.372-21.686
			L186.144,323.416z"/>
	</g>
</g>
<g>
	<g>
		<path d="M307.913,246.543c-4.978,8.957-12.209,16.666-20.914,22.293l8.2,12.684c10.779-6.968,19.74-16.526,25.916-27.642
			L307.913,246.543z"/>
	</g>
</g>
<g>
	<g>
		<path d="M274.976,274.907c-4.212,1.589-8.59,2.72-13.014,3.362l2.17,14.946c5.503-0.798,10.945-2.204,16.176-4.178
			L274.976,274.907z"/>
	</g>
</g>
<g>
	<g>
		<rect x="251.972" y="78.537" width="15.103" height="15.103"/>
	</g>
</g>
<g>
	<g>
		<rect x="282.178" y="78.537" width="41.051" height="15.103"/>
	</g>
</g>
<g>
	<g>
		<rect x="155.815" y="182.246" width="15.103" height="15.103"/>
	</g>
</g>
<g>
	<g>
		<rect x="155.815" y="152.039" width="15.103" height="15.103"/>
	</g>
</g>
<g>
	<g>
		<rect x="186.021" y="152.039" width="15.103" height="15.103"/>
	</g>
</g>
<g>
	<g>
		<rect x="186.021" y="182.246" width="15.103" height="15.103"/>
	</g>
</g>
<g>
	<g>
		<rect x="218.241" y="474.242" width="15.103" height="15.103"/>
	</g>
</g>
<g>
	<g>
		<rect x="248.448" y="474.242" width="15.103" height="15.103"/>
	</g>
</g>
<g>
	<g>
		<rect x="278.654" y="474.242" width="15.103" height="15.103"/>
	</g>
</g>
<g>
	<g>
		<rect x="175.449" y="444.035" width="161.101" height="15.103"/>
	</g>
</g>
<g>
</g>
<g>
</g>
<g>
</g>
<g>
</g>
<g>
</g>
<g>
</g>
<g>
</g>
<g>
</g>
<g>
</g>
<g>
</g>
<g>
</g>
<g>
</g>
<g>
</g>
<g>
</g>
<g>
</g>
</svg>
