<?xml version="1.0"?>
<svg xmlns="http://www.w3.org/2000/svg" xmlns:xlink="http://www.w3.org/1999/xlink" width="512" height="512" viewBox="0 0 512 512"><defs><linearGradient id="a" data-name="New Gradient Swatch 1" x1="33" y1="479" x2="556.007" y2="-44.007" gradientUnits="userSpaceOnUse"><stop offset="0" stop-color="#003f8a"/><stop offset="0.518" stop-color="#00d7df"/><stop offset="1" stop-color="#006df0"/></linearGradient><linearGradient id="c" x1="69" y1="515" x2="592.007" y2="-8.007" xlink:href="#a"/><linearGradient id="d" x1="105" y1="551" x2="628.007" y2="27.993" xlink:href="#a"/><linearGradient id="e" x1="-85" y1="361" x2="438.007" y2="-162.007" xlink:href="#a"/><linearGradient id="f" x1="-37" y1="409" x2="486.007" y2="-114.007" xlink:href="#a"/><linearGradient id="g" x1="-47" y1="399" x2="476.007" y2="-124.007" xlink:href="#a"/><linearGradient id="h" x1="17" y1="463" x2="540.007" y2="-60.007" xlink:href="#a"/><linearGradient id="i" x1="41" y1="487" x2="564.007" y2="-36.007" xlink:href="#a"/><linearGradient id="j" x1="-13" y1="433" x2="510.007" y2="-90.007" xlink:href="#a"/><linearGradient id="k" x1="-7" y1="439" x2="516.007" y2="-84.007" xlink:href="#a"/><linearGradient id="l" x1="57" y1="503" x2="580.007" y2="-20.007" xlink:href="#a"/><linearGradient id="m" x1="81" y1="527" x2="604.007" y2="3.993" xlink:href="#a"/><linearGradient id="n" x1="27" y1="473" x2="550.007" y2="-50.007" xlink:href="#a"/><linearGradient id="p" x1="97" y1="543" x2="620.007" y2="19.993" xlink:href="#a"/><linearGradient id="q" x1="121" y1="567" x2="644.007" y2="43.993" xlink:href="#a"/><linearGradient id="r" x1="67" y1="513" x2="590.007" y2="-10.007" xlink:href="#a"/></defs><g><path d="M472,8H136a32.036,32.036,0,0,0-32,32V248H32A24.032,24.032,0,0,0,8,272v48a23.9,23.9,0,0,0,6.13,16A23.9,23.9,0,0,0,8,352v48a23.9,23.9,0,0,0,6.13,16A23.9,23.9,0,0,0,8,432v48a24.032,24.032,0,0,0,24,24H240a24.032,24.032,0,0,0,24-24V432a23.9,23.9,0,0,0-6.13-16,23.9,23.9,0,0,0,4.75-8H472a32.036,32.036,0,0,0,32-32V40A32.036,32.036,0,0,0,472,8ZM248,480a8.011,8.011,0,0,1-8,8H32a8.011,8.011,0,0,1-8-8V432a8.011,8.011,0,0,1,8-8H240a8.011,8.011,0,0,1,8,8Zm0-80.6c-.01.2-.03.4-.03.6,0,.1.01.2.01.3A7.994,7.994,0,0,1,240,408H32a8.011,8.011,0,0,1-8-8V352a8.011,8.011,0,0,1,8-8H240a8.011,8.011,0,0,1,8,8Zm0-79.4a8.011,8.011,0,0,1-8,8H32a8.011,8.011,0,0,1-8-8V272a8.011,8.011,0,0,1,8-8h79.41c.2.01.39.03.59.03s.39-.02.59-.03H240a8.011,8.011,0,0,1,8,8ZM232,136a16,16,0,1,1,16-16A16.021,16.021,0,0,1,232,136ZM488,376a16.021,16.021,0,0,1-16,16H264V352a23.9,23.9,0,0,0-6.13-16A23.9,23.9,0,0,0,264,320V272a24.032,24.032,0,0,0-24-24V150.99a32.008,32.008,0,0,0,0-61.98V48a8,8,0,0,0-16,0V89.01a32.008,32.008,0,0,0,0,61.98V248H120V40a16.021,16.021,0,0,1,16-16H472a16.021,16.021,0,0,1,16,16Z" fill="url(#a)"/><path d="M312,177.01V48a8,8,0,0,0-16,0V177.01a32.008,32.008,0,0,0,0,61.98V368a8,8,0,0,0,16,0V238.99a32.008,32.008,0,0,0,0-61.98ZM304,224a16,16,0,1,1,16-16A16.021,16.021,0,0,1,304,224Z" fill="url(#a)"/><path d="M384,241.013V48a8,8,0,0,0-16,0V241.013a32,32,0,0,0,0,61.974V368a8,8,0,0,0,16,0V302.987a32,32,0,0,0,0-61.974ZM376,288a16,16,0,1,1,16-16A16.019,16.019,0,0,1,376,288Z" fill="url(#c)"/><path d="M456,177.013V48a8,8,0,0,0-16,0V177.013a32,32,0,0,0,0,61.974V368a8,8,0,0,0,16,0V238.987a32,32,0,0,0,0-61.974ZM448,224a16,16,0,1,1,16-16A16.019,16.019,0,0,1,448,224Z" fill="url(#d)"/><path d="M160,40a8,8,0,0,0-8,8V184a8,8,0,0,0,16,0V48A8,8,0,0,0,160,40Z" fill="url(#e)"/><path d="M160,200a8,8,0,0,0-8,8v8a8,8,0,0,0,16,0v-8A8,8,0,0,0,160,200Z" fill="url(#f)"/><path d="M56,320a24,24,0,1,0-24-24A24.027,24.027,0,0,0,56,320Zm0-32a8,8,0,1,1-8,8A8.009,8.009,0,0,1,56,288Z" fill="url(#g)"/><path d="M168,288h64a8,8,0,0,0,0-16H168a8,8,0,0,0,0,16Z" fill="url(#h)"/><path d="M232,296H216a8,8,0,0,0,0,16h16a8,8,0,0,0,0-16Z" fill="url(#i)"/><path d="M136,288h8a8,8,0,0,0,0-16h-8a8,8,0,0,0,0,16Z" fill="url(#j)"/><path d="M56,352a24,24,0,1,0,24,24A24.027,24.027,0,0,0,56,352Zm0,32a8,8,0,1,1,8-8A8.009,8.009,0,0,1,56,384Z" fill="url(#k)"/><path d="M240,360a8,8,0,0,0-8-8H168a8,8,0,0,0,0,16h64A8,8,0,0,0,240,360Z" fill="url(#l)"/><path d="M232,376H216a8,8,0,0,0,0,16h16a8,8,0,0,0,0-16Z" fill="url(#m)"/><path d="M144,352h-8a8,8,0,0,0,0,16h8a8,8,0,0,0,0-16Z" fill="url(#n)"/><path d="M56,432a24,24,0,1,0,24,24A24.027,24.027,0,0,0,56,432Zm0,32a8,8,0,1,1,8-8A8.009,8.009,0,0,1,56,464Z" fill="url(#a)"/><path d="M232,432H168a8,8,0,0,0,0,16h64a8,8,0,0,0,0-16Z" fill="url(#p)"/><path d="M232,456H216a8,8,0,0,0,0,16h16a8,8,0,0,0,0-16Z" fill="url(#q)"/><path d="M144,432h-8a8,8,0,0,0,0,16h8a8,8,0,0,0,0-16Z" fill="url(#r)"/></g></svg>
